<?xml version="1.0" encoding="utf-8"?>
<!-- Generator: Adobe Illustrator 28.2.0, SVG Export Plug-In . SVG Version: 6.00 Build 0)  -->
<svg version="1.1" id="Layer_1" xmlns="http://www.w3.org/2000/svg" xmlns:xlink="http://www.w3.org/1999/xlink" x="0px" y="0px"
	 viewBox="0 0 1080 1080" style="enable-background:new 0 0 1080 1080;" xml:space="preserve">
<style type="text/css">
	.st0{fill:#293550;}
</style>
<path class="st0" d="M890.1,437.5c-9.1-26.5-22.3-46.7-38.4-58.6c-30-25.1-73.9-25.1-103.9,0c-17.4,13.9-30.7,33.5-37,55.1
	c-8.4,24.4-12.6,60-12.6,107.4s4.2,83,12.6,107.4c7,21.6,19.5,41.1,37.7,55.1c14.6,11.9,33.5,18.8,52.3,18.8
	c18.8,0,37-6.3,52.3-18.1c17.4-13.9,30-33.5,37-55.1c11.2-34.9,16.7-71.1,15.3-107.4C904.7,505.9,899.8,471,890.1,437.5z
	 M607.6,568.6c-16-16.7-39.1-25.8-62.1-25.8c-48.8,0-87.9,39.1-87.9,87.9c0,23,9.1,46,25.8,62.1c33.5,34.9,89.3,36.3,124.1,2.1
	c34.9-33.5,36.3-89.3,2.1-124.1C609.7,570,608.3,569.3,607.6,568.6z M709.4,33C429.1-60.5,126.4,90.2,32.9,370.6
	s57.9,583.1,337.6,676.5c280.4,93.5,583.1-57.9,676.5-337.6C1140.5,429.1,989.8,126.5,709.4,33z M397.7,692.1
	c-11.9,20.9-30,38.4-50.9,50.2c-22.3,11.9-47.4,18.1-72.5,17.4c-32.8,1.4-64.9-9.8-90-31.4c-23.7-20.9-39.8-50.9-47.4-91.4H178
	c7,27.2,17.4,46.7,30.7,58.6c18.1,16,41.8,23.7,66.3,23c30,0,54.4-9.1,73.2-27.2c18.1-16.7,27.9-39.8,27.9-64.2
	c0-16-4.9-32.1-13.9-46s-21.6-25.1-37-32.1s-39.1-11.9-71.8-13.3v-38.4c17.4,0,35.6-3.5,51.6-9.8c13.9-4.9,25.8-13.9,34.2-25.8
	c7-9.8,10.5-21.6,10.5-34.2c0-18.1-7.7-35.6-21.6-47.4c-15.3-13.3-34.9-20.9-55.1-20.2c-16.7-0.7-33.5,4.9-46.7,15.3
	c-12.6,10.5-23.7,27.2-33.5,51.6h-42.5c7.7-34.2,22.3-60.7,44.6-79.5c21.6-18.8,49.5-28.6,78.1-27.9c20.9,0,41.8,4.9,60.7,14.6
	c18.1,9.1,32.8,23,43.9,40.5c9.8,16,15.3,34.2,15.3,53c0,36.3-18.1,64.9-53.7,85.8c19.5,7.7,36.3,19.5,49.5,35.6
	c17.4,20.9,27.2,47.4,27.2,74.6C416.5,648.1,410.2,671.8,397.7,692.1z M924.3,665.6c-10.5,27.9-28.6,52.3-52.3,70.4
	c-21.6,15.3-47.4,23.7-73.9,23.7c-25.8,0-50.9-7.7-72.5-23c-23-17.4-40.5-41.8-50.2-69c-1.4-3.5-2.8-7-3.5-10.5
	c-2.8,13.3-7.7,26.5-13.9,38.4c-11.2,19.5-27.9,35.6-47.4,46c-20.2,11.2-43.2,17.4-66.3,17.4c-22.3,0-44.6-5.6-63.5-16.7
	c-19.5-11.2-35.6-27.2-46-46.7c-11.2-19.5-16.7-41.8-16.7-64.2c0-18.1,3.5-37,10.5-53.7c9.8-23.7,22.3-46.7,37-68.3l126.9-189
	l34.2,22.3L512.8,514.2c13.9-4.9,27.9-7.7,42.5-7.7c32.1-0.7,62.8,12.6,84.4,35.6c7,7.7,13.3,16,18.1,24.4c0-8.4-0.7-17.4-0.7-26.5
	c0-55.1,5.6-97.6,17.4-127.6c9.8-27.2,27.2-50.9,50.2-68.3c20.9-15.3,46.7-23.7,72.5-23c26.5,0,52.3,7.7,73.2,23.7
	c23.7,18.1,41.8,42.5,52.3,70.4c12.6,31.4,19.5,73.2,19.5,125.5C943.1,593,936.8,634.9,924.3,665.6z"/>
</svg>
